<?xml version="1.0" standalone="no"?>
<!DOCTYPE svg PUBLIC "-//W3C//DTD SVG 20010904//EN"
 "http://www.w3.org/TR/2001/REC-SVG-20010904/DTD/svg10.dtd">
<svg version="1.0" xmlns="http://www.w3.org/2000/svg"
 width="1239.000000pt" height="1239.000000pt" viewBox="0 0 1239.000000 1239.000000"
 preserveAspectRatio="xMidYMid meet">
<metadata>
Created by potrace 1.14, written by Peter Selinger 2001-2017
</metadata>
<g transform="translate(0.000000,1239.000000) scale(0.100000,-0.100000)"
fill="#000000" stroke="none">
<path d="M5918 12380 c-91 -4 -201 -11 -243 -15 l-77 -7 -54 -113 c-114 -241
-202 -435 -196 -435 4 0 158 34 342 75 184 41 452 98 595 126 143 28 265 56
272 63 7 6 39 53 71 105 l59 94 -15 48 -15 47 -76 6 c-142 11 -495 14 -663 6z"/>
<path d="M5285 12320 c-578 -87 -1133 -250 -1660 -488 l-110 -50 -68 -111
c-91 -151 -258 -443 -254 -447 1 -2 121 33 265 76 484 146 1109 317 1592 435
107 26 200 53 207 59 7 6 52 99 101 206 49 107 106 230 126 273 42 92 65 87
-199 47z"/>
<path d="M6788 12307 l-28 -44 17 -77 17 -78 30 6 c17 4 168 29 336 56 168 28
325 54 350 58 l45 8 -54 12 c-175 40 -577 102 -655 102 -26 0 -36 -7 -58 -43z"/>
<path d="M7595 12174 c-277 -45 -762 -125 -776 -129 -13 -4 -14 -15 -7 -68 5
-34 11 -159 14 -277 l5 -215 47 3 c544 29 1033 49 1522 62 l375 9 173 43 c94
23 172 45 172 48 0 8 -390 198 -512 249 -315 133 -807 293 -890 290 -18 -1
-73 -8 -123 -15z"/>
<path d="M6677 12134 c-15 -26 -27 -48 -25 -49 2 -2 19 0 38 4 32 6 35 10 32
36 -7 55 -16 56 -45 9z"/>
<path d="M6657 12017 l-58 -10 -69 -116 c-83 -142 -241 -434 -236 -438 3 -4
246 11 395 23 l74 6 -7 236 c-7 260 -12 313 -30 311 -6 -1 -37 -7 -69 -12z"/>
<path d="M6450 11978 c-25 -5 -196 -41 -380 -80 -423 -88 -749 -163 -760 -174
-5 -5 -42 -87 -84 -183 l-75 -174 97 8 c53 3 292 21 530 38 l432 32 91 170
c84 156 141 259 191 343 11 17 16 32 11 31 -4 -1 -28 -5 -53 -11z"/>
<path d="M3275 11658 c-60 -32 -113 -62 -117 -66 -6 -6 -44 -233 -61 -361 -4
-31 -3 -32 10 -15 8 10 34 56 59 101 24 44 86 154 138 242 52 89 91 161 88
160 -4 -1 -56 -28 -117 -61z"/>
<path d="M5070 11674 c-322 -82 -724 -188 -874 -230 -308 -85 -756 -217 -752
-221 2 -2 154 10 337 26 184 17 550 49 814 71 263 23 480 42 481 43 14 14 148
347 140 346 -6 0 -72 -16 -146 -35z"/>
<path d="M9135 11580 l-70 -18 110 -1 110 -1 -33 20 c-38 23 -28 23 -117 0z"/>
<path d="M2939 11464 c-203 -124 -488 -326 -470 -332 5 -2 131 8 280 22 149
14 272 26 274 26 3 0 8 32 12 72 3 40 14 121 24 180 10 59 15 108 11 108 -3 0
-62 -34 -131 -76z"/>
<path d="M8370 11483 c-41 -1 -221 -7 -400 -13 -179 -6 -496 -20 -705 -30
-209 -11 -394 -20 -410 -20 l-31 0 -17 -201 c-10 -111 -16 -203 -14 -206 3 -2
159 41 348 96 368 107 753 215 1111 311 204 55 260 73 212 68 -10 -1 -53 -3
-94 -5z"/>
<path d="M8580 11439 c-520 -139 -718 -193 -1195 -330 -286 -82 -540 -155
-564 -162 l-45 -14 -23 -160 c-12 -88 -54 -327 -93 -532 -193 -1030 -324
-1964 -401 -2867 l-22 -260 73 -97 c40 -53 75 -97 79 -97 3 0 83 -9 176 -20
874 -105 1747 -296 3087 -676 l368 -104 92 8 93 8 840 536 c462 294 924 588
1028 652 103 65 187 119 187 121 0 2 -15 71 -34 154 -358 1558 -1338 2945
-2695 3812 l-124 79 -321 -1 -321 0 -185 -50z"/>
<path d="M6460 11394 c-96 -7 -182 -13 -191 -13 -11 -1 -40 -52 -89 -158 -71
-156 -190 -439 -190 -454 0 -4 12 -3 28 3 15 5 178 56 362 112 l335 101 7 53
c5 29 14 125 21 212 l13 160 -61 -1 c-33 -1 -139 -7 -235 -15z"/>
<path d="M6135 11372 c-115 -7 -880 -64 -941 -69 l-72 -6 -88 -221 c-98 -247
-264 -696 -258 -696 3 0 179 56 392 124 213 68 466 149 563 180 l175 56 38 97
c55 141 147 354 195 452 23 46 40 85 39 85 -2 1 -21 0 -43 -2z"/>
<path d="M4645 11259 c-610 -52 -1470 -130 -1493 -135 -17 -3 -31 -22 -52 -67
-28 -60 -29 -70 -41 -314 -11 -228 -9 -926 2 -937 3 -3 238 75 524 173 286 98
653 223 815 277 l295 99 33 95 c53 149 216 582 271 718 l50 122 -37 -1 c-20
-1 -185 -14 -367 -30z"/>
<path d="M2540 11071 c-155 -14 -190 -20 -211 -36 -80 -64 -179 -148 -176
-151 2 -2 143 43 313 100 170 58 298 104 284 104 -14 -1 -108 -8 -210 -17z"/>
<path d="M2517 10930 c-262 -88 -490 -166 -505 -174 -40 -21 -412 -402 -537
-551 -220 -260 -401 -511 -568 -786 -93 -153 -279 -490 -274 -496 2 -1 39 11
83 28 180 70 1249 461 1561 571 29 11 37 24 92 159 143 349 369 835 543 1166
95 182 119 243 95 243 -6 0 -227 -72 -490 -160z"/>
<path d="M6321 10797 l-364 -112 -44 -130 c-170 -506 -257 -952 -284 -1460
-13 -239 -2 -540 27 -734 30 -200 108 -429 228 -669 102 -204 288 -503 293
-472 2 8 14 141 28 295 79 878 199 1720 381 2690 90 478 126 705 110 704 -6 0
-175 -51 -375 -112z"/>
<path d="M2880 10641 c-204 -408 -492 -1052 -478 -1067 3 -2 137 42 298 98
l292 103 -6 325 c-4 179 -3 422 2 540 6 118 8 217 6 219 -1 2 -53 -96 -114
-218z"/>
<path d="M5825 10645 c-39 -13 -808 -259 -991 -316 l-90 -29 -92 -282 c-260
-805 -437 -1519 -562 -2278 -33 -200 -100 -710 -100 -761 0 -30 2 -31 33 -25
73 13 965 28 1302 22 343 -6 655 -19 776 -32 l56 -6 7 77 7 76 -94 142 c-218
329 -360 618 -437 893 -66 237 -85 437 -77 848 3 183 12 354 22 436 45 375
123 730 238 1083 30 92 52 167 48 166 -3 0 -24 -7 -46 -14z"/>
<path d="M4030 10061 c-700 -238 -959 -327 -964 -332 -5 -5 16 -386 48 -889
14 -212 31 -475 38 -585 8 -124 13 -418 13 -776 l0 -576 35 3 c19 2 145 11
280 19 445 27 440 26 440 40 0 29 63 514 86 665 123 799 347 1714 614 2505 42
125 45 135 33 134 -5 0 -285 -94 -623 -208z"/>
<path d="M2685 9598 c-170 -60 -315 -115 -322 -121 -24 -24 -209 -539 -303
-843 -156 -504 -267 -979 -339 -1449 -31 -201 -60 -425 -55 -425 2 0 101 11
221 24 304 34 591 63 916 90 153 13 280 26 283 29 2 2 9 111 15 243 17 378 2
854 -56 1739 -13 204 -29 467 -35 585 -6 118 -12 220 -13 226 -1 6 -132 -35
-312 -98z"/>
<path d="M2250 9443 c-8 -3 -226 -82 -483 -175 -257 -94 -626 -229 -820 -301
l-352 -132 -42 -85 c-23 -47 -74 -166 -114 -265 -233 -582 -368 -1175 -423
-1847 l-5 -67 35 -7 c20 -4 128 7 262 25 408 56 1243 161 1278 161 6 0 17 61
27 145 58 479 173 1034 317 1536 80 277 300 925 340 999 11 20 7 23 -20 13z"/>
<path d="M12145 7293 c-66 -43 -497 -317 -959 -610 -543 -345 -830 -533 -814
-533 35 0 523 46 746 70 382 42 961 120 1199 161 l66 12 -7 136 c-10 188 -32
406 -62 601 -14 91 -28 182 -31 203 -3 20 -8 37 -12 36 -3 0 -60 -34 -126 -76z"/>
<path d="M6228 6974 c-4 -38 5 -48 41 -42 19 3 18 5 -8 41 l-29 38 -4 -37z"/>
<path d="M4260 6898 c-151 -5 -276 -10 -278 -12 -11 -11 -58 -753 -49 -762 16
-17 1216 -73 1908 -90 l277 -7 1 119 c1 65 6 196 11 289 5 94 12 231 16 306
l7 136 -115 7 c-445 26 -1207 32 -1778 14z"/>
<path d="M3455 6858 c-165 -11 -301 -21 -302 -21 -4 -5 -44 -649 -40 -653 7
-7 657 -59 737 -59 11 0 15 16 17 70 7 171 25 468 33 550 16 148 22 135 -67
134 -43 -1 -213 -10 -378 -21z"/>
<path d="M6216 6787 c-3 -45 -10 -176 -16 -292 -5 -115 -12 -267 -16 -336 l-6
-126 78 -6 c42 -4 243 -7 446 -7 l370 0 -54 59 c-307 339 -466 523 -648 748
-22 27 -33 32 -86 37 l-62 5 -6 -82z"/>
<path d="M6452 6832 c112 -144 344 -412 567 -656 l146 -159 485 7 c484 6 899
18 1295 36 411 18 855 44 855 50 0 5 -78 27 -565 162 -983 271 -1849 457
-2530 543 -110 14 -215 27 -233 29 -30 5 -32 3 -20 -12z"/>
<path d="M2965 6823 c-22 -2 -164 -15 -315 -28 -304 -28 -932 -93 -967 -100
-13 -3 -25 -15 -28 -28 -8 -38 -27 -328 -21 -334 7 -7 618 -75 971 -108 154
-14 315 -29 357 -33 l77 -8 5 50 c8 67 36 515 36 560 0 40 0 40 -115 29z"/>
<path d="M1055 6620 c-247 -33 -514 -67 -592 -76 -79 -10 -143 -21 -143 -24 0
-3 37 -11 83 -17 45 -7 199 -30 342 -52 479 -73 807 -114 815 -101 4 6 10 66
14 133 4 67 9 139 13 160 l6 37 -44 -1 c-24 -1 -246 -27 -494 -59z"/>
<path d="M29 6483 c-21 -5 -29 -80 -29 -272 0 -566 80 -1148 231 -1694 l42
-148 86 -76 c315 -277 704 -495 1128 -633 118 -39 444 -123 450 -116 2 1 -13
49 -33 107 -135 397 -249 919 -303 1389 -36 313 -45 489 -46 863 l0 367 -30 5
c-16 3 -118 17 -225 31 -293 38 -643 89 -947 139 -266 44 -291 47 -324 38z"/>
<path d="M12195 6295 c-386 -63 -1043 -143 -1570 -190 -390 -34 -407 -36 -402
-41 7 -7 752 -221 1127 -324 306 -84 882 -231 961 -245 l36 -7 12 129 c7 70
16 257 18 416 l6 287 -24 -1 c-13 -1 -87 -11 -164 -24z"/>
<path d="M1626 6229 c-10 -49 -7 -566 4 -754 37 -630 145 -1209 332 -1788 42
-129 55 -158 72 -162 98 -23 453 -59 688 -70 l137 -7 5 23 c2 13 30 422 61
909 90 1419 104 1632 110 1686 l5 52 -68 6 c-37 4 -168 15 -292 27 -124 11
-407 40 -628 64 -222 25 -407 45 -412 45 -4 0 -10 -14 -14 -31z"/>
<path d="M3100 6083 c0 -16 -7 -129 -15 -253 -80 -1218 -155 -2384 -152 -2385
3 -3 753 -33 1004 -42 l192 -6 -14 59 c-38 155 -108 523 -139 734 -81 542
-116 1012 -116 1566 l0 301 -112 7 c-62 4 -223 16 -358 26 -313 25 -290 26
-290 -7z"/>
<path d="M3930 5704 c0 -644 50 -1197 161 -1804 37 -202 100 -493 108 -501 6
-6 652 -27 961 -31 l135 -2 190 86 c173 78 675 315 684 323 2 2 -2 71 -8 153
-34 437 -43 693 -48 1345 -5 642 -7 687 -23 687 -287 0 -1648 57 -2067 86
l-93 7 0 -349z"/>
<path d="M9695 6034 c-585 -40 -1794 -81 -2434 -84 -33 0 -32 -2 116 -152 82
-84 309 -316 503 -515 194 -200 355 -363 357 -363 22 0 1803 1107 1803 1121 0
12 -105 10 -345 -7z"/>
<path d="M10124 6010 c-25 -24 -1291 -810 -1682 -1044 l-162 -97 139 -147
c462 -489 818 -935 1007 -1264 45 -80 3 -73 344 -58 654 28 1916 107 1996 125
16 3 36 38 82 142 219 494 370 1000 452 1508 16 105 32 202 35 217 l4 26 -217
52 c-383 92 -1369 363 -1958 539 -18 5 -36 5 -40 1z"/>
<path d="M6175 5764 c-9 -218 0 -879 15 -1204 15 -315 41 -703 48 -727 7 -20
20 -14 247 104 298 155 652 348 940 511 319 180 718 413 734 428 11 10 -50 77
-356 391 -203 208 -434 446 -514 530 l-144 151 -211 1 c-116 1 -332 4 -481 8
l-271 6 -7 -199z"/>
<path d="M7910 4651 c-545 -318 -992 -565 -1406 -778 l-262 -134 4 -37 c8 -70
34 -335 34 -345 0 -12 2199 -2 2600 12 151 5 325 11 385 12 61 0 113 3 117 5
21 13 -238 392 -435 636 -190 235 -704 808 -725 808 -4 0 -144 -81 -312 -179z"/>
<path d="M320 4230 c0 -43 186 -500 298 -732 59 -122 210 -407 226 -425 0 -1
75 -24 166 -52 184 -57 527 -145 725 -186 148 -30 528 -95 532 -91 2 2 -20 52
-48 112 -69 148 -157 355 -209 494 -23 63 -43 116 -44 117 -1 1 -63 15 -138
32 -547 120 -1059 363 -1435 680 -40 34 -73 57 -73 51z"/>
<path d="M5977 3610 c-109 -54 -272 -131 -362 -172 l-164 -73 177 -6 c97 -4
268 -7 380 -8 l202 -1 0 23 c0 26 -30 331 -33 333 -1 1 -91 -43 -200 -96z"/>
<path d="M2040 3455 c0 -2 31 -81 69 -176 73 -182 131 -317 200 -459 50 -103
33 -97 314 -106 l197 -7 0 34 c0 19 9 169 20 333 11 165 18 301 16 303 -2 2
-84 8 -182 14 -199 10 -426 32 -551 52 -46 8 -83 13 -83 12z"/>
<path d="M11525 3439 c-491 -40 -1164 -80 -1650 -99 -159 -6 -309 -13 -332
-16 l-41 -5 48 -102 c102 -220 160 -450 160 -641 0 -138 -66 -595 -135 -941
-25 -121 -48 -231 -51 -243 l-7 -24 254 7 c140 4 273 10 296 14 58 8 217 145
503 431 380 379 669 748 939 1198 80 132 249 444 239 441 -1 -1 -102 -10 -223
-20z"/>
<path d="M2926 3358 c-3 -13 -12 -147 -21 -298 -9 -151 -18 -292 -21 -312 l-6
-37 69 5 c368 29 700 90 1111 205 151 43 182 54 178 68 -16 51 -76 277 -81
305 l-7 33 -171 7 c-652 26 -902 36 -969 41 -75 6 -77 6 -82 -17z"/>
<path d="M4220 3313 c0 -12 56 -228 76 -295 3 -10 12 -18 20 -18 32 0 810 288
801 296 -2 2 -174 8 -383 14 -208 5 -409 12 -446 14 -55 3 -68 0 -68 -11z"/>
<path d="M9050 3309 c-447 -16 -1394 -29 -2065 -29 -382 0 -695 -4 -695 -8 0
-15 49 -383 70 -527 51 -346 142 -824 228 -1195 l47 -205 145 -8 c233 -13
2649 18 2665 35 21 21 125 581 171 918 51 383 18 602 -145 944 l-42 86 -82 -2
c-45 0 -179 -5 -297 -9z"/>
<path d="M5120 3226 c-222 -92 -410 -163 -625 -237 -158 -54 -170 -60 -166
-81 6 -40 146 -456 211 -628 112 -294 370 -875 403 -906 13 -12 920 -34 1390
-34 223 0 238 1 233 18 -15 46 -99 419 -135 597 -73 363 -174 997 -197 1231
-3 40 -10 77 -13 83 -5 8 -92 13 -282 16 -151 3 -357 7 -459 9 l-185 4 -175
-72z"/>
<path d="M909 2963 c5 -10 59 -93 120 -186 200 -300 410 -565 658 -829 122
-130 342 -342 429 -414 l41 -34 229 -15 c126 -8 257 -17 292 -20 59 -5 62 -5
62 17 0 13 5 109 11 214 l12 191 -85 134 c-107 168 -210 346 -300 516 -64 122
-72 133 -101 137 -18 3 -93 15 -167 27 -342 53 -751 145 -1045 234 -82 24
-154 45 -158 45 -4 0 -3 -8 2 -17z"/>
<path d="M4150 2879 c-350 -107 -791 -195 -1115 -221 -82 -6 -151 -12 -153
-14 -2 -1 -14 -168 -27 -370 l-25 -369 62 -90 c34 -49 109 -154 166 -232 l105
-142 61 -5 c122 -12 1418 -66 1573 -66 l72 0 -89 183 c-170 351 -344 788 -455
1145 -26 81 -51 162 -56 180 -6 17 -14 32 -17 31 -4 0 -50 -13 -102 -30z"/>
<path d="M2429 2582 c71 -141 340 -600 341 -581 0 2 9 137 20 299 11 162 20
304 20 316 0 20 -6 21 -165 28 -91 3 -186 9 -211 13 l-46 6 41 -81z"/>
<path d="M2816 1653 c-4 -76 -9 -150 -12 -165 -6 -29 -10 -28 199 -43 l79 -5
-36 48 c-20 26 -77 104 -127 175 -50 70 -92 127 -94 127 -1 0 -6 -62 -9 -137z"/>
<path d="M2250 1418 c122 -103 449 -343 457 -334 6 5 21 195 22 272 l1 40
-212 13 c-117 7 -229 14 -248 17 -30 4 -33 3 -20 -8z"/>
<path d="M2796 1339 c-3 -30 -8 -112 -12 -184 l-6 -130 123 -77 c252 -156 491
-285 739 -396 150 -68 353 -152 367 -152 4 0 -81 89 -188 198 -215 217 -384
405 -564 625 l-118 145 -56 6 c-31 3 -106 8 -167 12 l-111 6 -7 -53z"/>
<path d="M3230 1363 c0 -11 207 -259 349 -418 64 -71 224 -238 356 -371 l240
-240 170 -52 c315 -96 592 -159 895 -206 167 -26 442 -57 448 -51 2 2 -21 37
-52 79 -180 243 -492 744 -651 1043 l-80 151 -185 6 c-767 28 -1312 51 -1427
61 -35 3 -63 2 -63 -2z"/>
<path d="M9770 1310 c-91 -4 -188 -8 -217 -9 l-52 -1 -11 -42 c-6 -24 -31
-114 -56 -201 -25 -87 -44 -160 -42 -163 11 -10 607 399 608 419 0 4 -15 6
-32 5 -18 -1 -107 -5 -198 -8z"/>
<path d="M4980 1297 c0 -8 145 -269 227 -411 201 -346 553 -866 590 -873 46
-8 742 -2 862 7 151 12 292 28 298 34 2 2 -26 89 -62 192 -78 222 -193 596
-261 847 l-47 177 -156 0 c-235 0 -1221 19 -1343 25 -60 3 -108 4 -108 2z"/>
<path d="M9055 1289 c-126 -4 -717 -10 -1312 -14 -596 -5 -1083 -12 -1083 -16
0 -36 159 -575 250 -849 99 -299 119 -350 133 -350 25 0 367 60 458 80 515
114 982 279 1439 507 320 160 348 176 366 219 15 35 124 410 124 425 0 5 -33
8 -72 7 -40 -1 -176 -5 -303 -9z"/>
</g>
</svg>
