<?xml version="1.0" encoding="UTF-8"?>
<svg id="Layer_2" data-name="Layer 2" xmlns="http://www.w3.org/2000/svg" viewBox="0 0 378.02 378.25">
  <g id="Layer_1-2" data-name="Layer 1">
    <path d="m233.23,189.09c27.17,27.09,53.72,53.55,80.24,80.03,18.28,18.25,36.55,36.49,54.77,54.8,12.63,12.69,13.02,32.18,1,44.5-12.59,12.91-32.11,13.24-45.17.24-43.81-43.6-87.46-87.37-131.18-131.08-1.16-1.16-2.37-2.26-4.18-3.97-11.92,12.11-23.62,24.18-35.51,36.07-32.86,32.88-65.77,65.71-98.72,98.5-13.12,13.06-32.53,13.3-45.18.75-12.62-12.53-12.44-31.97.73-45.18,43.75-43.9,87.59-87.71,131.4-131.55.82-.82,1.6-1.67,2.71-2.83-1.16-1.27-2.19-2.49-3.31-3.62C97.32,142.06,53.79,98.4,10.27,54.74-1.04,43.4-3.21,27.76,4.76,15.04,12.77,2.27,28.21-3.39,42.17,2.08c4.65,1.82,9.14,4.95,12.71,8.49,43.77,43.41,87.35,87.01,130.99,130.55,1.04,1.04,2.18,1.99,3.65,3.32,12.61-12.69,25.02-25.22,37.48-37.71,32.36-32.44,64.72-64.87,97.11-97.27,12.43-12.43,32.44-12.52,44.49-.3,12.55,12.73,12.57,32.12-.1,44.85-43.38,43.57-86.8,87.1-130.22,130.63-1.41,1.41-2.99,2.65-5.06,4.47Z" style="stroke-width: 0px;"/>
  </g>
</svg>