<?xml version="1.0" encoding="UTF-8"?>
<svg id="Layer_2" data-name="Layer 2" xmlns="http://www.w3.org/2000/svg" viewBox="0 0 3779.76 3625.85">
  <g id="Layer_1-2" data-name="Layer 1">
    <g>
      <path d="m2125.96,2359.44c5.26-4.84,10.62-9.56,15.75-14.53,153.23-148.39,306.44-296.81,459.65-445.22,48.36-46.84,96.81-93.58,145.05-140.55,29-28.23,62.89-46.84,102.98-53.48,63.24-10.49,118.87,5.64,166.4,48.67,12.83,11.62,24.93,24.09,36.99,36.53,67.6,69.75,68.66,182.18,1.22,253.6-4.57,4.84-9.41,9.44-14.2,14.08-339.94,329.29-679.93,658.53-1019.75,987.93-24.38,23.63-51.44,42.67-84.29,51.69-72.58,19.92-137.44,5.18-192.29-46.99-39.11-37.21-77-75.71-115.43-113.63-236.76-233.64-473.52-467.27-710.28-700.91-65-64.14-129.91-128.38-195.08-192.36-24.31-23.86-42.64-51.38-51.36-84.35-17.53-66.3-3.16-125.44,42.91-176.25,13.85-15.27,28.97-29.53,44.51-43.1,74.04-64.62,187.05-62.14,258.93,5.88,30.98,29.32,60.91,59.74,91.28,89.71,171.75,169.5,343.48,339.02,515.24,508.51,3.72,3.67,7.72,7.04,11.31,10.3,5.21-1.54,4.35-5.32,4.44-8.38.2-7.33.1-14.66.1-22,0-692.61.01-1385.22-.04-2077.83,0-25.46,1.73-50.67,9.41-75.06,26.49-84.17,82.76-138.76,167.16-162.58,109.21-30.83,222.82,18.89,275.95,114.08,18.9,33.87,28.2,70.29,29.47,108.89.26,7.99.1,16,.1,24,0,692.6,0,1385.21,0,2077.81v23.83l3.9,1.71Z" style="stroke-width: 0px;"/>
      <path d="m3422.81,2268.54c18.25-2.98,334.9-3.24,354.95-.53.48,3.43,1.29,7.18,1.46,10.97.26,5.99.1,12,.1,18,0,210.66-1.76,421.33.41,631.97,3.3,320.03-219.67,596.01-525.99,674.13-59.1,15.07-119.12,22.57-180.02,22.58-789.3.1-1578.59.53-2367.89-.27-197.91-.2-368.5-71.02-508.52-211.47-97.17-97.46-158.49-214.83-185.22-349.97-8.03-40.63-11.96-81.8-11.99-123.2-.17-217.32-.09-434.65-.05-651.97,0-6.56.49-13.12.78-20.12,7.57-3.72,14.97-2.42,22.06-2.43,59.33-.11,118.66-.07,177.99-.07,44.66,0,89.33-.01,133.99.01,6.58,0,13.16.2,20.17.32.87,4.44,1.9,7.6,2.04,10.8.3,6.65.16,13.33.16,19.99,0,211.99.2,423.98-.11,635.97-.09,64.34,15.42,124.22,49.74,178.53,55.32,87.54,134.53,140.69,236.42,159.14,20.22,3.66,41.05,3.98,61.61,5.67,4.64.38,9.33.07,13.99.07,781.3,0,1562.6-.02,2343.89.07,42.29,0,83.99-3.84,123.98-18.16,116.06-41.54,192.54-120.69,225.73-240.16,7.89-28.39,10.41-57.56,10.38-87.07-.17-186.66-.09-373.32-.09-559.97,0-27.33,0-54.66,0-82v-20.84Z" style="stroke-width: 0px;"/>
    </g>
  </g>
</svg>