<?xml version="1.0" encoding="UTF-8"?>
<svg id="Layer_2" data-name="Layer 2" xmlns="http://www.w3.org/2000/svg" viewBox="0 0 1792.23 1279.99">
  <g id="Layer_1-2" data-name="Layer 1">
    <g>
      <path d="m896.12,255.99c-255.16,0-510.32,0-765.48,0-55.36,0-102.23-31.51-121.9-81.86C-21.79,95.99,31.06,9.47,114.65.83c5.29-.55,10.64-.79,15.96-.79C640.92,0,1151.24,0,1661.56,0c63.57,0,115.16,41.49,128.05,102.89,14.6,69.53-33.68,140.04-103.66,151.06-8.52,1.34-17.23,1.95-25.86,1.95-254.66.1-509.32.08-763.98.08Z" style="stroke-width: 0px;"/>
      <path d="m896.36,512c255.16,0,510.32,0,765.48,0,55.42,0,102.43,31.87,121.93,82.54,29.93,77.75-23.24,164.37-105.99,172.58-5.46.54-10.97.82-16.46.82-510.15.04-1020.3.04-1530.45.03-63.5,0-114.98-41.11-128.1-102.21-15.04-70.03,32.97-140.41,103.75-151.79,8.34-1.34,16.9-1.91,25.36-1.92,254.83-.1,509.65-.08,764.48-.08Z" style="stroke-width: 0px;"/>
      <path d="m896.12,1279.99c-255.16,0-510.32,0-765.48,0-55.36,0-102.23-31.51-121.9-81.86-30.53-78.14,22.32-164.66,105.91-173.3,5.29-.55,10.64-.79,15.96-.79,510.32-.04,1020.64-.04,1530.95-.03,63.57,0,115.16,41.49,128.05,102.89,14.6,69.54-33.68,140.04-103.66,151.06-8.52,1.34-17.23,1.95-25.86,1.95-254.66.1-509.32.08-763.97.08Z" style="stroke-width: 0px;"/>
    </g>
  </g>
</svg>